<svg width="108" height="108" viewBox="0 0 108 108" fill="none" xmlns="http://www.w3.org/2000/svg">
<g filter="url(#filter0_d_104_675)">
<path fill-rule="evenodd" clip-rule="evenodd" d="M15 4C12.7909 4 11 5.79086 11 8V90C11 92.2091 12.7909 94 15 94H97C99.2091 94 101 92.2091 101 90V8C101 5.79086 99.2091 4 97 4H15ZM58 24C60.2091 24 62 25.7909 62 28V39C62 41.2091 63.7909 43 66 43H77C79.2091 43 81 44.7909 81 47V52C81 54.2091 79.2091 56 77 56H66C63.7909 56 62 57.7909 62 60V70C62 72.2091 60.2091 74 58 74H53C50.7909 74 49 72.2091 49 70V60C49 57.7909 47.2091 56 45 56H35C32.7909 56 31 54.2091 31 52V47C31 44.7909 32.7909 43 35 43H45C47.2091 43 49 41.2091 49 39V28C49 25.7909 50.7909 24 53 24H58Z" fill="white"/>
</g>
<defs>
<filter id="filter0_d_104_675" x="0" y="0" width="108" height="108" filterUnits="userSpaceOnUse" color-interpolation-filters="sRGB">
<feFlood flood-opacity="0" result="BackgroundImageFix"/>
<feColorMatrix in="SourceAlpha" type="matrix" values="0 0 0 0 0 0 0 0 0 0 0 0 0 0 0 0 0 0 127 0" result="hardAlpha"/>
<feOffset dx="-2" dy="5"/>
<feGaussianBlur stdDeviation="4.5"/>
<feComposite in2="hardAlpha" operator="out"/>
<feColorMatrix type="matrix" values="0 0 0 0 0 0 0 0 0 0 0 0 0 0 0 0 0 0 0.23 0"/>
<feBlend mode="normal" in2="BackgroundImageFix" result="effect1_dropShadow_104_675"/>
<feBlend mode="normal" in="SourceGraphic" in2="effect1_dropShadow_104_675" result="shape"/>
</filter>
</defs>
</svg>
